<mxfile host="app.diagrams.net" modified="2023-07-15T17:45:48.583Z" agent="Mozilla/5.0 (Windows NT 10.0; Win64; x64; rv:109.0) Gecko/20100101 Firefox/114.0" etag="L4l9n2MeWHhbR1WIkZ6h" version="21.6.2" type="device">
  <diagram name="Page-1" id="e7e014a7-5840-1c2e-5031-d8a46d1fe8dd">
    <mxGraphModel dx="1500" dy="823" grid="1" gridSize="10" guides="1" tooltips="1" connect="1" arrows="1" fold="1" page="1" pageScale="1" pageWidth="1169" pageHeight="826" background="none" math="0" shadow="0">
      <root>
        <mxCell id="0" />
        <mxCell id="1" parent="0" />
        <mxCell id="2" value="Customer" style="swimlane;whiteSpace=wrap" parent="1" vertex="1">
          <mxGeometry x="164.5" y="128" width="280" height="1372" as="geometry" />
        </mxCell>
        <mxCell id="5" value="" style="ellipse;shape=startState;fillColor=#000000;strokeColor=#ff0000;" parent="2" vertex="1">
          <mxGeometry x="125" y="40" width="30" height="30" as="geometry" />
        </mxCell>
        <mxCell id="6" value="" style="edgeStyle=elbowEdgeStyle;elbow=horizontal;verticalAlign=bottom;endArrow=open;endSize=8;strokeColor=#FF0000;endFill=1;rounded=0" parent="2" source="5" target="fNs8Et8L7JbyQYj9k-YZ-41" edge="1">
          <mxGeometry x="100" y="40" as="geometry">
            <mxPoint x="115.5" y="110" as="targetPoint" />
          </mxGeometry>
        </mxCell>
        <mxCell id="fNs8Et8L7JbyQYj9k-YZ-41" value="Input Data &lt;br&gt;Registrasi" style="rounded=1;whiteSpace=wrap;html=1;arcSize=40;fontColor=#000000;fillColor=#ffffc0;strokeColor=#ff0000;" vertex="1" parent="2">
          <mxGeometry x="80" y="112" width="120" height="40" as="geometry" />
        </mxCell>
        <mxCell id="fNs8Et8L7JbyQYj9k-YZ-52" value="Input Data&lt;br&gt;Login" style="rounded=1;whiteSpace=wrap;html=1;arcSize=40;fontColor=#000000;fillColor=#ffffc0;strokeColor=#ff0000;" vertex="1" parent="2">
          <mxGeometry x="80" y="259" width="120" height="40" as="geometry" />
        </mxCell>
        <mxCell id="fNs8Et8L7JbyQYj9k-YZ-77" value="Pengajuan Pinjaman" style="rounded=1;whiteSpace=wrap;html=1;arcSize=40;fontColor=#000000;fillColor=#ffffc0;strokeColor=#ff0000;" vertex="1" parent="2">
          <mxGeometry x="80" y="452" width="120" height="40" as="geometry" />
        </mxCell>
        <mxCell id="fNs8Et8L7JbyQYj9k-YZ-114" value="Lihat Notifikasi&lt;br&gt;Pengajuan Berhasil" style="rounded=1;whiteSpace=wrap;html=1;arcSize=40;fontColor=#000000;fillColor=#ffffc0;strokeColor=#ff0000;" vertex="1" parent="2">
          <mxGeometry x="80" y="1182" width="120" height="40" as="geometry" />
        </mxCell>
        <mxCell id="fNs8Et8L7JbyQYj9k-YZ-116" value="" style="ellipse;html=1;shape=endState;fillColor=#000000;strokeColor=#ff0000;" vertex="1" parent="2">
          <mxGeometry x="125" y="1302" width="30" height="30" as="geometry" />
        </mxCell>
        <mxCell id="fNs8Et8L7JbyQYj9k-YZ-115" value="" style="edgeStyle=orthogonalEdgeStyle;html=1;verticalAlign=bottom;endArrow=open;endSize=8;strokeColor=#ff0000;rounded=0;" edge="1" source="fNs8Et8L7JbyQYj9k-YZ-114" parent="2" target="fNs8Et8L7JbyQYj9k-YZ-116">
          <mxGeometry relative="1" as="geometry">
            <mxPoint x="955.5" y="1292" as="targetPoint" />
          </mxGeometry>
        </mxCell>
        <mxCell id="3" value="Registration Service" style="swimlane;whiteSpace=wrap" parent="1" vertex="1">
          <mxGeometry x="725.5" y="128" width="280" height="1372" as="geometry" />
        </mxCell>
        <mxCell id="17" value="" style="endArrow=open;strokeColor=#FF0000;endFill=1;rounded=0" parent="3" target="16" edge="1">
          <mxGeometry relative="1" as="geometry">
            <mxPoint x="75" y="160" as="sourcePoint" />
          </mxGeometry>
        </mxCell>
        <mxCell id="19" value="" style="endArrow=open;strokeColor=#FF0000;endFill=1;rounded=0" parent="3" target="18" edge="1">
          <mxGeometry relative="1" as="geometry">
            <mxPoint x="75" y="270" as="sourcePoint" />
          </mxGeometry>
        </mxCell>
        <mxCell id="32" value="" style="endArrow=none;strokeColor=#FF0000;endFill=0;rounded=0;dashed=1" parent="3" target="31" edge="1">
          <mxGeometry relative="1" as="geometry">
            <mxPoint x="87.12121212121201" y="375" as="sourcePoint" />
          </mxGeometry>
        </mxCell>
        <mxCell id="fNs8Et8L7JbyQYj9k-YZ-43" value="Proses Registrasi&lt;br&gt;Customer" style="rounded=1;whiteSpace=wrap;html=1;arcSize=40;fontColor=#000000;fillColor=#ffffc0;strokeColor=#ff0000;" vertex="1" parent="3">
          <mxGeometry x="80.5" y="112" width="120" height="40" as="geometry" />
        </mxCell>
        <mxCell id="4" value="Account Service" style="swimlane;whiteSpace=wrap" parent="1" vertex="1">
          <mxGeometry x="1005.5" y="128" width="280" height="1372" as="geometry" />
        </mxCell>
        <mxCell id="fNs8Et8L7JbyQYj9k-YZ-45" value="Cek Data&lt;br&gt;Customer" style="rhombus;whiteSpace=wrap;html=1;fontColor=#000000;fillColor=#ffffc0;strokeColor=#ff0000;" vertex="1" parent="4">
          <mxGeometry x="87.25" y="106" width="105.5" height="52" as="geometry" />
        </mxCell>
        <mxCell id="fNs8Et8L7JbyQYj9k-YZ-46" value="Tidak" style="edgeStyle=orthogonalEdgeStyle;html=1;align=left;verticalAlign=bottom;endArrow=open;endSize=8;strokeColor=#ff0000;rounded=0;" edge="1" source="fNs8Et8L7JbyQYj9k-YZ-45" parent="4" target="fNs8Et8L7JbyQYj9k-YZ-54">
          <mxGeometry x="-0.1292" y="-10" relative="1" as="geometry">
            <mxPoint x="215.5" y="292" as="targetPoint" />
            <Array as="points">
              <mxPoint x="246" y="132" />
              <mxPoint x="246" y="279" />
            </Array>
            <mxPoint x="-9" y="10" as="offset" />
          </mxGeometry>
        </mxCell>
        <mxCell id="fNs8Et8L7JbyQYj9k-YZ-54" value="Insert Data&lt;br&gt;Customer Baru" style="rounded=1;whiteSpace=wrap;html=1;arcSize=40;fontColor=#000000;fillColor=#ffffc0;strokeColor=#ff0000;" vertex="1" parent="4">
          <mxGeometry x="80" y="259" width="120" height="40" as="geometry" />
        </mxCell>
        <mxCell id="fNs8Et8L7JbyQYj9k-YZ-67" value="Verifikasi&lt;br&gt;Akun" style="rhombus;whiteSpace=wrap;html=1;fontColor=#000000;fillColor=#ffffc0;strokeColor=#ff0000;" vertex="1" parent="4">
          <mxGeometry x="90" y="392" width="100" height="58" as="geometry" />
        </mxCell>
        <mxCell id="20" value="" style="endArrow=open;strokeColor=#FF0000;endFill=1;rounded=0" parent="1" target="18" edge="1">
          <mxGeometry relative="1" as="geometry">
            <mxPoint x="334.5" y="478" as="sourcePoint" />
          </mxGeometry>
        </mxCell>
        <mxCell id="fNs8Et8L7JbyQYj9k-YZ-42" value="" style="edgeStyle=orthogonalEdgeStyle;html=1;verticalAlign=bottom;endArrow=open;endSize=8;strokeColor=#ff0000;rounded=0;" edge="1" source="fNs8Et8L7JbyQYj9k-YZ-41" parent="1" target="fNs8Et8L7JbyQYj9k-YZ-43">
          <mxGeometry relative="1" as="geometry">
            <mxPoint x="279.5" y="340" as="targetPoint" />
          </mxGeometry>
        </mxCell>
        <mxCell id="fNs8Et8L7JbyQYj9k-YZ-44" value="" style="edgeStyle=orthogonalEdgeStyle;html=1;verticalAlign=bottom;endArrow=open;endSize=8;strokeColor=#ff0000;rounded=0;" edge="1" source="fNs8Et8L7JbyQYj9k-YZ-43" parent="1" target="fNs8Et8L7JbyQYj9k-YZ-45">
          <mxGeometry relative="1" as="geometry">
            <mxPoint x="570" y="340" as="targetPoint" />
          </mxGeometry>
        </mxCell>
        <mxCell id="fNs8Et8L7JbyQYj9k-YZ-51" value="" style="edgeStyle=orthogonalEdgeStyle;html=1;verticalAlign=bottom;endArrow=open;endSize=8;strokeColor=#ff0000;rounded=0;" edge="1" source="fNs8Et8L7JbyQYj9k-YZ-50" parent="1" target="fNs8Et8L7JbyQYj9k-YZ-52">
          <mxGeometry relative="1" as="geometry">
            <mxPoint x="584.5" y="540" as="targetPoint" />
          </mxGeometry>
        </mxCell>
        <mxCell id="fNs8Et8L7JbyQYj9k-YZ-47" value="Ada" style="edgeStyle=orthogonalEdgeStyle;html=1;align=left;verticalAlign=top;endArrow=open;endSize=8;strokeColor=#ff0000;rounded=0;" edge="1" source="fNs8Et8L7JbyQYj9k-YZ-45" parent="1" target="fNs8Et8L7JbyQYj9k-YZ-48">
          <mxGeometry x="-0.7604" y="-5" relative="1" as="geometry">
            <mxPoint x="840" y="380" as="targetPoint" />
            <Array as="points">
              <mxPoint x="1146" y="340" />
            </Array>
            <mxPoint as="offset" />
          </mxGeometry>
        </mxCell>
        <mxCell id="fNs8Et8L7JbyQYj9k-YZ-55" value="" style="edgeStyle=orthogonalEdgeStyle;html=1;verticalAlign=bottom;endArrow=open;endSize=8;strokeColor=#ff0000;rounded=0;" edge="1" source="fNs8Et8L7JbyQYj9k-YZ-54" parent="1" target="fNs8Et8L7JbyQYj9k-YZ-50">
          <mxGeometry relative="1" as="geometry">
            <mxPoint x="864.5" y="470" as="targetPoint" />
          </mxGeometry>
        </mxCell>
        <mxCell id="fNs8Et8L7JbyQYj9k-YZ-56" value="Login Service" style="swimlane;whiteSpace=wrap" vertex="1" parent="1">
          <mxGeometry x="1285.5" y="128" width="280" height="1372" as="geometry" />
        </mxCell>
        <mxCell id="fNs8Et8L7JbyQYj9k-YZ-65" value="Proses Login" style="rounded=1;whiteSpace=wrap;html=1;arcSize=40;fontColor=#000000;fillColor=#ffffc0;strokeColor=#ff0000;" vertex="1" parent="fNs8Et8L7JbyQYj9k-YZ-56">
          <mxGeometry x="80" y="312" width="120" height="40" as="geometry" />
        </mxCell>
        <mxCell id="fNs8Et8L7JbyQYj9k-YZ-53" value="" style="edgeStyle=orthogonalEdgeStyle;html=1;verticalAlign=bottom;endArrow=open;endSize=8;strokeColor=#ff0000;rounded=0;" edge="1" source="fNs8Et8L7JbyQYj9k-YZ-52" parent="1" target="fNs8Et8L7JbyQYj9k-YZ-65">
          <mxGeometry relative="1" as="geometry">
            <mxPoint x="1103.4926470588234" y="460" as="targetPoint" />
            <Array as="points">
              <mxPoint x="305" y="460" />
            </Array>
          </mxGeometry>
        </mxCell>
        <mxCell id="fNs8Et8L7JbyQYj9k-YZ-66" value="" style="edgeStyle=orthogonalEdgeStyle;html=1;verticalAlign=bottom;endArrow=open;endSize=8;strokeColor=#ff0000;rounded=0;" edge="1" source="fNs8Et8L7JbyQYj9k-YZ-65" parent="1" target="fNs8Et8L7JbyQYj9k-YZ-67">
          <mxGeometry relative="1" as="geometry">
            <mxPoint x="1160" y="540" as="targetPoint" />
            <Array as="points">
              <mxPoint x="1145" y="500" />
            </Array>
          </mxGeometry>
        </mxCell>
        <mxCell id="fNs8Et8L7JbyQYj9k-YZ-69" value="Gagal" style="edgeStyle=orthogonalEdgeStyle;html=1;align=left;verticalAlign=top;endArrow=open;endSize=8;strokeColor=#ff0000;rounded=0;" edge="1" source="fNs8Et8L7JbyQYj9k-YZ-67" parent="1" target="fNs8Et8L7JbyQYj9k-YZ-52">
          <mxGeometry x="-0.8647" y="-19" relative="1" as="geometry">
            <mxPoint x="270" y="549" as="targetPoint" />
            <Array as="points">
              <mxPoint x="280" y="549" />
            </Array>
            <mxPoint as="offset" />
          </mxGeometry>
        </mxCell>
        <mxCell id="fNs8Et8L7JbyQYj9k-YZ-70" value="Loan Service" style="swimlane;whiteSpace=wrap" vertex="1" parent="1">
          <mxGeometry x="1565.5" y="129" width="280" height="1371" as="geometry" />
        </mxCell>
        <mxCell id="fNs8Et8L7JbyQYj9k-YZ-71" value="Ambil Data &lt;br&gt; Pinjaman Customer" style="rounded=1;whiteSpace=wrap;html=1;arcSize=40;fontColor=#000000;fillColor=#ffffc0;strokeColor=#ff0000;" vertex="1" parent="fNs8Et8L7JbyQYj9k-YZ-70">
          <mxGeometry x="80" y="401" width="120" height="40" as="geometry" />
        </mxCell>
        <mxCell id="fNs8Et8L7JbyQYj9k-YZ-82" value="In Progress" style="rhombus;whiteSpace=wrap;html=1;fontColor=#000000;fillColor=#ffffc0;strokeColor=#ff0000;" vertex="1" parent="fNs8Et8L7JbyQYj9k-YZ-70">
          <mxGeometry x="99.5" y="562" width="88.5" height="52" as="geometry" />
        </mxCell>
        <mxCell id="fNs8Et8L7JbyQYj9k-YZ-84" value="Tidak Ada" style="edgeStyle=orthogonalEdgeStyle;html=1;align=left;verticalAlign=top;endArrow=open;endSize=8;strokeColor=#ff0000;rounded=0;" edge="1" source="fNs8Et8L7JbyQYj9k-YZ-82" parent="fNs8Et8L7JbyQYj9k-YZ-70" target="fNs8Et8L7JbyQYj9k-YZ-86">
          <mxGeometry x="-1" relative="1" as="geometry">
            <mxPoint x="138.5" y="692" as="targetPoint" />
          </mxGeometry>
        </mxCell>
        <mxCell id="fNs8Et8L7JbyQYj9k-YZ-86" value="Proses Pinjaman" style="rounded=1;whiteSpace=wrap;html=1;arcSize=40;fontColor=#000000;fillColor=#ffffc0;strokeColor=#ff0000;" vertex="1" parent="fNs8Et8L7JbyQYj9k-YZ-70">
          <mxGeometry x="83.75" y="663" width="120" height="40" as="geometry" />
        </mxCell>
        <mxCell id="fNs8Et8L7JbyQYj9k-YZ-87" value="" style="edgeStyle=orthogonalEdgeStyle;html=1;verticalAlign=bottom;endArrow=open;endSize=8;strokeColor=#ff0000;rounded=0;" edge="1" source="fNs8Et8L7JbyQYj9k-YZ-86" parent="fNs8Et8L7JbyQYj9k-YZ-70" target="fNs8Et8L7JbyQYj9k-YZ-88">
          <mxGeometry relative="1" as="geometry">
            <mxPoint x="114.5" y="792" as="targetPoint" />
          </mxGeometry>
        </mxCell>
        <mxCell id="fNs8Et8L7JbyQYj9k-YZ-88" value="Nominal &amp;lt;= Limit&lt;br&gt;&amp;amp;&lt;br&gt;Tenor &amp;lt;= Limit" style="rhombus;whiteSpace=wrap;html=1;fontColor=#000000;fillColor=#ffffc0;strokeColor=#ff0000;" vertex="1" parent="fNs8Et8L7JbyQYj9k-YZ-70">
          <mxGeometry x="73.25" y="740" width="143" height="130" as="geometry" />
        </mxCell>
        <mxCell id="fNs8Et8L7JbyQYj9k-YZ-89" value="Ya" style="edgeStyle=orthogonalEdgeStyle;html=1;align=left;verticalAlign=bottom;endArrow=open;endSize=8;strokeColor=#ff0000;rounded=0;" edge="1" source="fNs8Et8L7JbyQYj9k-YZ-88" parent="fNs8Et8L7JbyQYj9k-YZ-70" target="fNs8Et8L7JbyQYj9k-YZ-97">
          <mxGeometry x="0.0257" y="-21" relative="1" as="geometry">
            <mxPoint x="254.5" y="911" as="targetPoint" />
            <Array as="points">
              <mxPoint x="255" y="805" />
              <mxPoint x="255" y="911" />
            </Array>
            <mxPoint as="offset" />
          </mxGeometry>
        </mxCell>
        <mxCell id="fNs8Et8L7JbyQYj9k-YZ-90" value="Tidak" style="edgeStyle=orthogonalEdgeStyle;html=1;align=left;verticalAlign=top;endArrow=open;endSize=8;strokeColor=#ff0000;rounded=0;exitX=0;exitY=0.5;exitDx=0;exitDy=0;" edge="1" source="fNs8Et8L7JbyQYj9k-YZ-88" parent="fNs8Et8L7JbyQYj9k-YZ-70" target="fNs8Et8L7JbyQYj9k-YZ-94">
          <mxGeometry x="-0.3187" y="-1" relative="1" as="geometry">
            <mxPoint x="44.19" y="913.05" as="targetPoint" />
            <mxPoint x="24.496122448979293" y="810.9989795918366" as="sourcePoint" />
            <Array as="points">
              <mxPoint x="45" y="805" />
              <mxPoint x="45" y="911" />
            </Array>
            <mxPoint as="offset" />
          </mxGeometry>
        </mxCell>
        <mxCell id="fNs8Et8L7JbyQYj9k-YZ-94" value="Ditolak" style="rounded=1;whiteSpace=wrap;html=1;arcSize=40;fontColor=#000000;fillColor=#ffffc0;strokeColor=#ff0000;" vertex="1" parent="fNs8Et8L7JbyQYj9k-YZ-70">
          <mxGeometry x="70" y="891" width="64.5" height="40" as="geometry" />
        </mxCell>
        <mxCell id="fNs8Et8L7JbyQYj9k-YZ-95" value="" style="edgeStyle=orthogonalEdgeStyle;html=1;verticalAlign=bottom;endArrow=open;endSize=8;strokeColor=#ff0000;rounded=0;" edge="1" source="fNs8Et8L7JbyQYj9k-YZ-94" parent="fNs8Et8L7JbyQYj9k-YZ-70" target="fNs8Et8L7JbyQYj9k-YZ-100">
          <mxGeometry relative="1" as="geometry">
            <mxPoint x="74.5" y="991" as="targetPoint" />
            <Array as="points">
              <mxPoint x="102" y="961" />
              <mxPoint x="102" y="961" />
            </Array>
          </mxGeometry>
        </mxCell>
        <mxCell id="fNs8Et8L7JbyQYj9k-YZ-97" value="Diterima" style="rounded=1;whiteSpace=wrap;html=1;arcSize=40;fontColor=#000000;fillColor=#ffffc0;strokeColor=#ff0000;" vertex="1" parent="fNs8Et8L7JbyQYj9k-YZ-70">
          <mxGeometry x="164.5" y="891" width="70" height="40" as="geometry" />
        </mxCell>
        <mxCell id="fNs8Et8L7JbyQYj9k-YZ-98" value="" style="edgeStyle=orthogonalEdgeStyle;html=1;verticalAlign=bottom;endArrow=open;endSize=8;strokeColor=#ff0000;rounded=0;" edge="1" source="fNs8Et8L7JbyQYj9k-YZ-97" parent="fNs8Et8L7JbyQYj9k-YZ-70" target="fNs8Et8L7JbyQYj9k-YZ-100">
          <mxGeometry relative="1" as="geometry">
            <mxPoint x="220" y="991" as="targetPoint" />
            <Array as="points">
              <mxPoint x="200" y="941" />
              <mxPoint x="200" y="941" />
            </Array>
          </mxGeometry>
        </mxCell>
        <mxCell id="fNs8Et8L7JbyQYj9k-YZ-100" value="" style="shape=line;html=1;strokeWidth=6;strokeColor=#ff0000;" vertex="1" parent="fNs8Et8L7JbyQYj9k-YZ-70">
          <mxGeometry x="60" y="961" width="184.75" height="10" as="geometry" />
        </mxCell>
        <mxCell id="fNs8Et8L7JbyQYj9k-YZ-101" value="" style="edgeStyle=orthogonalEdgeStyle;html=1;verticalAlign=bottom;endArrow=open;endSize=8;strokeColor=#ff0000;rounded=0;" edge="1" source="fNs8Et8L7JbyQYj9k-YZ-100" parent="fNs8Et8L7JbyQYj9k-YZ-70" target="fNs8Et8L7JbyQYj9k-YZ-104">
          <mxGeometry relative="1" as="geometry">
            <mxPoint x="154.5" y="1041" as="targetPoint" />
            <Array as="points">
              <mxPoint x="145" y="991" />
              <mxPoint x="145" y="991" />
            </Array>
          </mxGeometry>
        </mxCell>
        <mxCell id="fNs8Et8L7JbyQYj9k-YZ-104" value="Proses Pengajuan&lt;br&gt;Pinjaman" style="rounded=1;whiteSpace=wrap;html=1;arcSize=40;fontColor=#000000;fillColor=#ffffc0;strokeColor=#ff0000;" vertex="1" parent="fNs8Et8L7JbyQYj9k-YZ-70">
          <mxGeometry x="84.75" y="1006" width="120" height="40" as="geometry" />
        </mxCell>
        <mxCell id="fNs8Et8L7JbyQYj9k-YZ-105" value="" style="edgeStyle=orthogonalEdgeStyle;html=1;verticalAlign=bottom;endArrow=open;endSize=8;strokeColor=#ff0000;rounded=0;" edge="1" source="fNs8Et8L7JbyQYj9k-YZ-104" parent="fNs8Et8L7JbyQYj9k-YZ-70" target="fNs8Et8L7JbyQYj9k-YZ-110">
          <mxGeometry relative="1" as="geometry">
            <mxPoint x="144.75" y="1151" as="targetPoint" />
          </mxGeometry>
        </mxCell>
        <mxCell id="fNs8Et8L7JbyQYj9k-YZ-110" value="Pengajuan&lt;br&gt;Berhasil" style="rhombus;whiteSpace=wrap;html=1;fontColor=#000000;fillColor=#ffffc0;strokeColor=#ff0000;" vertex="1" parent="fNs8Et8L7JbyQYj9k-YZ-70">
          <mxGeometry x="97.5" y="1074" width="94.5" height="71" as="geometry" />
        </mxCell>
        <mxCell id="fNs8Et8L7JbyQYj9k-YZ-68" value="Berhasil" style="edgeStyle=orthogonalEdgeStyle;html=1;align=left;verticalAlign=bottom;endArrow=open;endSize=8;strokeColor=#ff0000;rounded=0;" edge="1" source="fNs8Et8L7JbyQYj9k-YZ-67" parent="1" target="fNs8Et8L7JbyQYj9k-YZ-71">
          <mxGeometry x="-0.8867" y="-11" relative="1" as="geometry">
            <mxPoint x="1100" y="530" as="targetPoint" />
            <mxPoint as="offset" />
          </mxGeometry>
        </mxCell>
        <mxCell id="fNs8Et8L7JbyQYj9k-YZ-72" value="Main Service" style="swimlane;whiteSpace=wrap" vertex="1" parent="1">
          <mxGeometry x="445" y="128" width="280" height="1372" as="geometry" />
        </mxCell>
        <mxCell id="fNs8Et8L7JbyQYj9k-YZ-48" value="Tampilkan Data&lt;br&gt;Sudah Ada" style="rounded=1;whiteSpace=wrap;html=1;arcSize=40;fontColor=#000000;fillColor=#ffffc0;strokeColor=#ff0000;" vertex="1" parent="fNs8Et8L7JbyQYj9k-YZ-72">
          <mxGeometry x="80" y="192" width="120" height="40" as="geometry" />
        </mxCell>
        <mxCell id="fNs8Et8L7JbyQYj9k-YZ-50" value="Arahkan&lt;br&gt;Proses Login" style="rounded=1;whiteSpace=wrap;html=1;arcSize=40;fontColor=#000000;fillColor=#ffffc0;strokeColor=#ff0000;" vertex="1" parent="fNs8Et8L7JbyQYj9k-YZ-72">
          <mxGeometry x="80" y="259" width="120" height="40" as="geometry" />
        </mxCell>
        <mxCell id="fNs8Et8L7JbyQYj9k-YZ-49" value="" style="edgeStyle=orthogonalEdgeStyle;html=1;verticalAlign=bottom;endArrow=open;endSize=8;strokeColor=#ff0000;rounded=0;" edge="1" source="fNs8Et8L7JbyQYj9k-YZ-48" parent="fNs8Et8L7JbyQYj9k-YZ-72" target="fNs8Et8L7JbyQYj9k-YZ-50">
          <mxGeometry relative="1" as="geometry">
            <mxPoint x="420.5" y="302" as="targetPoint" />
          </mxGeometry>
        </mxCell>
        <mxCell id="fNs8Et8L7JbyQYj9k-YZ-74" value="Tampilkan Data&lt;br&gt;Akun dan Pinjaman" style="rounded=1;whiteSpace=wrap;html=1;arcSize=40;fontColor=#000000;fillColor=#ffffc0;strokeColor=#ff0000;" vertex="1" parent="fNs8Et8L7JbyQYj9k-YZ-72">
          <mxGeometry x="75" y="452" width="120" height="40" as="geometry" />
        </mxCell>
        <mxCell id="fNs8Et8L7JbyQYj9k-YZ-76" value="" style="edgeStyle=orthogonalEdgeStyle;html=1;verticalAlign=bottom;endArrow=open;endSize=8;strokeColor=#ff0000;rounded=0;" edge="1" parent="1" source="fNs8Et8L7JbyQYj9k-YZ-71" target="fNs8Et8L7JbyQYj9k-YZ-74">
          <mxGeometry relative="1" as="geometry">
            <mxPoint x="590" y="690" as="targetPoint" />
            <mxPoint x="1170" y="600" as="sourcePoint" />
            <Array as="points">
              <mxPoint x="1706" y="600" />
            </Array>
          </mxGeometry>
        </mxCell>
        <mxCell id="fNs8Et8L7JbyQYj9k-YZ-75" value="" style="edgeStyle=orthogonalEdgeStyle;html=1;verticalAlign=bottom;endArrow=open;endSize=8;strokeColor=#ff0000;rounded=0;" edge="1" source="fNs8Et8L7JbyQYj9k-YZ-74" parent="1" target="fNs8Et8L7JbyQYj9k-YZ-77">
          <mxGeometry relative="1" as="geometry">
            <mxPoint x="580" y="680" as="targetPoint" />
          </mxGeometry>
        </mxCell>
        <mxCell id="fNs8Et8L7JbyQYj9k-YZ-83" value="Ada" style="edgeStyle=orthogonalEdgeStyle;html=1;align=left;verticalAlign=bottom;endArrow=open;endSize=8;strokeColor=#ff0000;rounded=0;" edge="1" source="fNs8Et8L7JbyQYj9k-YZ-82" parent="1" target="fNs8Et8L7JbyQYj9k-YZ-74">
          <mxGeometry x="-0.9666" y="9" relative="1" as="geometry">
            <mxPoint x="560" y="650" as="targetPoint" />
            <Array as="points">
              <mxPoint x="1709" y="640" />
              <mxPoint x="580" y="640" />
            </Array>
            <mxPoint as="offset" />
          </mxGeometry>
        </mxCell>
        <mxCell id="fNs8Et8L7JbyQYj9k-YZ-78" value="" style="edgeStyle=orthogonalEdgeStyle;html=1;verticalAlign=bottom;endArrow=open;endSize=8;strokeColor=#ff0000;rounded=0;" edge="1" source="fNs8Et8L7JbyQYj9k-YZ-77" parent="1" target="fNs8Et8L7JbyQYj9k-YZ-82">
          <mxGeometry relative="1" as="geometry">
            <mxPoint x="890" y="740" as="targetPoint" />
            <Array as="points">
              <mxPoint x="305" y="716" />
            </Array>
          </mxGeometry>
        </mxCell>
        <mxCell id="fNs8Et8L7JbyQYj9k-YZ-91" value="Loan History Service" style="swimlane;whiteSpace=wrap" vertex="1" parent="1">
          <mxGeometry x="1845.5" y="128" width="280" height="1372" as="geometry" />
        </mxCell>
        <mxCell id="fNs8Et8L7JbyQYj9k-YZ-102" value="Simpan Data&lt;br&gt;Pengajuan Pinjaman" style="rounded=1;whiteSpace=wrap;html=1;arcSize=40;fontColor=#000000;fillColor=#ffffc0;strokeColor=#ff0000;" vertex="1" parent="fNs8Et8L7JbyQYj9k-YZ-91">
          <mxGeometry x="80" y="1007" width="120" height="40" as="geometry" />
        </mxCell>
        <mxCell id="fNs8Et8L7JbyQYj9k-YZ-107" value="" style="edgeStyle=orthogonalEdgeStyle;html=1;verticalAlign=bottom;endArrow=open;endSize=8;strokeColor=#ff0000;rounded=0;" edge="1" parent="1" source="fNs8Et8L7JbyQYj9k-YZ-104" target="fNs8Et8L7JbyQYj9k-YZ-102">
          <mxGeometry relative="1" as="geometry">
            <mxPoint x="1720.25" y="1290" as="targetPoint" />
            <mxPoint x="1720.5" y="1185" as="sourcePoint" />
          </mxGeometry>
        </mxCell>
        <mxCell id="fNs8Et8L7JbyQYj9k-YZ-108" value="Notification Service" style="swimlane;whiteSpace=wrap" vertex="1" parent="1">
          <mxGeometry x="2125.5" y="128" width="280" height="1372" as="geometry" />
        </mxCell>
        <mxCell id="fNs8Et8L7JbyQYj9k-YZ-109" value="Proses Kirim&lt;br&gt;Notifikasi" style="rounded=1;whiteSpace=wrap;html=1;arcSize=40;fontColor=#000000;fillColor=#ffffc0;strokeColor=#ff0000;" vertex="1" parent="fNs8Et8L7JbyQYj9k-YZ-108">
          <mxGeometry x="74.5" y="1090.5" width="120" height="40" as="geometry" />
        </mxCell>
        <mxCell id="fNs8Et8L7JbyQYj9k-YZ-111" value="Ya" style="edgeStyle=orthogonalEdgeStyle;html=1;align=left;verticalAlign=bottom;endArrow=open;endSize=8;strokeColor=#ff0000;rounded=0;" edge="1" source="fNs8Et8L7JbyQYj9k-YZ-110" parent="1" target="fNs8Et8L7JbyQYj9k-YZ-109">
          <mxGeometry x="-0.9435" y="-21" relative="1" as="geometry">
            <mxPoint x="1855" y="1240" as="targetPoint" />
            <mxPoint as="offset" />
          </mxGeometry>
        </mxCell>
        <mxCell id="fNs8Et8L7JbyQYj9k-YZ-112" value="Tidak" style="edgeStyle=orthogonalEdgeStyle;html=1;align=left;verticalAlign=top;endArrow=open;endSize=8;strokeColor=#ff0000;rounded=0;" edge="1" source="fNs8Et8L7JbyQYj9k-YZ-110" parent="1" target="fNs8Et8L7JbyQYj9k-YZ-74">
          <mxGeometry x="-0.9272" y="-19" relative="1" as="geometry">
            <mxPoint x="540" y="810" as="targetPoint" />
            <Array as="points">
              <mxPoint x="550" y="1238" />
            </Array>
            <mxPoint as="offset" />
          </mxGeometry>
        </mxCell>
        <mxCell id="fNs8Et8L7JbyQYj9k-YZ-118" value="" style="edgeStyle=orthogonalEdgeStyle;html=1;verticalAlign=bottom;endArrow=open;endSize=8;strokeColor=#ff0000;rounded=0;" edge="1" parent="1" source="fNs8Et8L7JbyQYj9k-YZ-109" target="fNs8Et8L7JbyQYj9k-YZ-114">
          <mxGeometry relative="1" as="geometry">
            <mxPoint x="610" y="1320" as="targetPoint" />
            <mxPoint x="1780" y="1165" as="sourcePoint" />
            <Array as="points">
              <mxPoint x="2260" y="1330" />
            </Array>
          </mxGeometry>
        </mxCell>
      </root>
    </mxGraphModel>
  </diagram>
</mxfile>
